<?xml version="1.0" encoding="UTF-8" standalone="no"?>
<svg
   xmlns:dc="http://purl.org/dc/elements/1.1/"
   xmlns:cc="http://creativecommons.org/ns#"
   xmlns:rdf="http://www.w3.org/1999/02/22-rdf-syntax-ns#"
   xmlns:svg="http://www.w3.org/2000/svg"
   xmlns="http://www.w3.org/2000/svg"
   xmlns:xlink="http://www.w3.org/1999/xlink"
   xmlns:sodipodi="http://sodipodi.sourceforge.net/DTD/sodipodi-0.dtd"
   xmlns:inkscape="http://www.inkscape.org/namespaces/inkscape"
   inkscape:version="1.0 (4035a4fb49, 2020-05-01)"
   sodipodi:docname="fondo.svg"
   viewBox="0 0 225 225"
   height="225"
   width="225"
   id="svg7"
   version="1.1">
  <metadata
     id="metadata13">
    <rdf:RDF>
      <cc:Work
         rdf:about="">
        <dc:format>image/svg+xml</dc:format>
        <dc:type
           rdf:resource="http://purl.org/dc/dcmitype/StillImage" />
        <dc:title></dc:title>
      </cc:Work>
    </rdf:RDF>
  </metadata>
  <defs
     id="defs11">
    <pattern
       patternTransform="matrix(0.14613095,-0.11939964,0.11939967,0.146131,169.67958,12.357989)"
       id="pattern28"
       xlink:href="#pattern21"
       inkscape:collect="always" />
    <pattern
       id="pattern21"
       patternTransform="translate(44.952484,19.280011)"
       height="183.94187"
       width="131.63771"
       patternUnits="userSpaceOnUse">
      <path
         style="fill:#4d4d4d;stroke:none"
         d="m 34.327526,0 v 11 c -8.6413,0 -18.4973,-1.3316 -26.9992004,0.2284 -4.0276,0.739 -7.9353,4.2235 -6.2392,8.6628 1.4798,3.8733 5.7092,4.0557 9.2384004,4.1049 7.9967,0.1117 16.0025,0.0039 24,0.0039 0,3.8257 -0.9867,9.3674 1.0278,12.787 4.1291,7.0093 15.8967,8.4885 21.6542,14.0016 5.392,5.1628 -1.788,16.8643 7.337,19.1088 11.337,2.7885 5.936,-12.6025 9.009,-17.5185 4.83,-7.7282 18.332,-7.7619 22.944,-15.5919 2.015,-3.4196 1.028,-8.9612 1.028,-12.787 7.998004,0 16.003004,0.1078 24.000004,-0.0039 3.529,-0.0492 7.759,-0.2316 9.238,-4.1049 1.697,-4.4393 -2.211,-7.9238 -6.239,-8.6628 C 115.82453,9.6684 105.96853,11 97.327526,11 V 0 h -63 m 63,11 v 13 c -8.999,0 -18.001,0.0611 -27,-8e-4 -3.647,-0.025 -7.85,-0.0415 -9.392,-4.0578 -1.644,-4.2801 1.234,-7.94 5.397,-8.713 9.724,-1.806 21.104,-0.2284 30.995,-0.2284 m -61,39.7539 c -9.0947,1.8345 -18.9851,10.3935 -27.0000004,14.9652 -2.8657,1.6347 -7.0037,3.2574 -8.3966,6.4908 -1.6506,3.831401 -0.6034,9.693099 -0.6034,13.790099 V 116 137 c 2e-4,3.061 -0.5956,7.031 1.0278,9.787 1.9457,3.303 6.7699,5.111 9.9722004,6.932 8.0319,4.567 15.9848,9.265 24,13.86 7.3468,4.212 14.635,8.521 22,12.702 3.011,1.709 6.337,4.314 10,3.511 5.137,-1.125 10.46,-5.492 15,-8.073 11.047,-6.281 22.068004,-12.637 33.000004,-19.116 4.496,-2.664 13.302,-5.583 15.397,-10.708 1.608,-3.936 0.603,-9.713 0.603,-13.895 V 103 80 c -0.001,-3.0716 0.535,-6.8707 -1.603,-9.3904 -2.959,-3.4861 -8.521,-5.5019 -12.397,-7.8102 -9.957,-5.9301 -23.916004,-18.4062 -34.397004,-6.8951 -2.922,3.2102 -0.909,8.2186 -1.921,12.0556 -1.207,4.5798 -10.531,10.7423 -15.258,10.7423 -4.308,0 -13.2359,-5.8501 -14.8206,-9.7956 -1.3624,-3.3918 0.0878,-7.2519 -0.9213,-10.6967 -1.2919,-4.4103 -9.3552,-8.3288 -13.6821,-7.456 m -17.8912,27.0702 c 4.2846,-0.2765 9.3554,3.883899 12.8912,5.894899 7.6939,4.376 15.3248,8.87 23,13.281 3.215,1.848 7.226,5.125001 11,5.507001 3.828,0.387 7.852,-2.997001 11,-4.788001 8.365,-4.758 16.639,-9.675 25.000004,-14.438 3.341,-1.904 8.647,-6.333399 12.772,-5.174499 7.268,2.0415 -1.084,9.252499 -3.773,10.878499 -8.881,5.374 -18.020004,10.379 -26.999004,15.591001 -3.566,2.07 -8.652,3.908 -11.397,7.058 -2.635,3.025 -1.603,8.656 -1.603,12.366 v 30 c 0,3.797 1.552,12.922 -4.039,13.534 -3.931,0.43 -4.81,-3.516 -4.942,-6.535 -0.347,-7.968 -0.019,-16.023 -0.019,-23.999 v -17 c -0.005,-2.459 0.339,-5.435 -1.028,-7.621 -2.324,-3.718 -8.2939,-5.849 -11.972,-7.958 -9.8133,-5.626001 -20.8264,-10.688001 -29.9414,-17.375001 -2.8721,-2.108 -5.9439,-8.835099 0.0502,-9.221899 z"
         id="path19"
         inkscape:export-xdpi="96"
         inkscape:export-ydpi="96" />
    </pattern>
  </defs>
  <sodipodi:namedview
     inkscape:current-layer="g15"
     inkscape:cy="113.54596"
     inkscape:cx="14.330563"
     inkscape:zoom="1.7441967"
     showgrid="false"
     id="namedview9"
     inkscape:window-height="480"
     inkscape:window-width="640"
     inkscape:pageshadow="2"
     inkscape:pageopacity="0"
     guidetolerance="10"
     gridtolerance="10"
     objecttolerance="10"
     borderopacity="1"
     bordercolor="#666666"
     pagecolor="#ffffff" />
  <g
     style="opacity:0.1"
     id="g15"
     inkscape:label="Image"
     inkscape:groupmode="layer">
    <rect
       ry="0"
       id="rect24"
       y="-31.173014"
       x="-132.77975"
       height="273.92105"
       width="452.922"
       style="fill:url(#pattern28);stroke:none;stroke-width:0.915793" />
  </g>
</svg>
