<svg xmlns="http://www.w3.org/2000/svg" viewBox="0 0 710.69 890.32"><defs><style>.cls-1{fill:#005d69;}.cls-2{fill:#1d1d1b;}</style></defs><g id="Capa_2" data-name="Capa 2"><g id="Capa_1-2" data-name="Capa 1"><polygon class="cls-1" points="710.69 0 404.65 306.04 355.35 355.34 306.05 306.04 0 0 98.6 0 355.35 256.74 612.09 0 710.69 0"/><path class="cls-2" d="M345.45,365.24l-46.86-46.86L186.44,430.53V206.23l-69.72-69.72V802.06L146,886.4a5.14,5.14,0,0,0,9.69.08l30.74-84.42V529.15L347.89,367.68Z"/><path class="cls-2" d="M523.54,207V430.53L411.75,318.74l-46.5,46.5-2.8,2.8L523.54,529.15V802.06l29.4,85a4.9,4.9,0,0,0,9.24.08l31.08-85V137.23Z"/></g></g></svg>